<svg id="Layer_1" data-name="Layer 1" xmlns="http://www.w3.org/2000/svg" viewBox="0 0 647.62 217.96">
  <defs>
    <style>
      .cls-1 {
        fill: #a33327;
      }
    </style>
  </defs>
  <g id="Object">
    <path class="cls-1" d="M345,150.15l3.11,2.28c2,1.52,5.12,3.74,9.18,6.61a411.26,411.26,0,0,0,36.68,23.22A281.45,281.45,0,0,0,422,196q7.91,3.32,16.69,6.28c5.88,1.91,12,3.74,18.49,5.25s13.2,2.77,20.21,3.71a206.19,206.19,0,0,0,21.79,1.61c1.87,0,3.76.09,5.66,0l5.74-.11,5.81-.31c2-.08,3.91-.31,5.88-.46a236.1,236.1,0,0,0,24.09-3.5,170.22,170.22,0,0,0,24.47-6.76A133.74,133.74,0,0,0,594.7,190.5a114.28,114.28,0,0,0,11.11-7.68A104.34,104.34,0,0,0,616,173.61a84.63,84.63,0,0,0,15.75-23.06,81.37,81.37,0,0,0,7.1-27.92c.13-1.22.11-2.46.18-3.69s0-2.47,0-3.71v-1.86c0-.62-.07-1.24-.11-1.86-.08-1.23-.16-2.47-.25-3.71a83.68,83.68,0,0,0-2.84-14.63,78.75,78.75,0,0,0-6-13.86,75.23,75.23,0,0,0-8.69-12.62,92.75,92.75,0,0,0-11-11.07,114.67,114.67,0,0,0-12.87-9.38,138.13,138.13,0,0,0-29.44-13.85,142.13,142.13,0,0,0-32.55-7,167.81,167.81,0,0,0-34.13.42A190.43,190.43,0,0,0,467,33.28c-22.55,7.15-44.36,18.17-65.85,30.65S358.32,90.32,336,103.52l-16.64,9.72c-5.49,3.22-11,6.5-16.39,9.77-10.89,6.54-21.73,13.09-32.6,19.46-21.72,12.73-43.54,24.8-65.9,35-11.18,5.09-22.49,9.72-34,13.65a247,247,0,0,1-34.87,9.35,172.87,172.87,0,0,1-35.46,3.12c-1.48,0-3,0-4.43-.11l-4.4-.34-2.2-.17-1.1-.09L87,202.74l-4.36-.61-2.18-.3c-.72-.09-1.43-.27-2.15-.4L74,200.56c-2.86-.5-5.65-1.35-8.45-2.1s-5.53-1.74-8.27-2.67l-2.05-.71c-.67-.27-1.33-.57-2-.85l-4-1.72a39.94,39.94,0,0,1-3.88-1.92l-3.83-2c-1.27-.66-2.45-1.52-3.68-2.28L36,185.15l-.91-.58c-.3-.2-.58-.43-.87-.64l-3.45-2.6c-.56-.44-1.16-.84-1.69-1.33l-1.61-1.43-3.2-2.87-3-3.12L19.81,171c-.46-.54-.9-1.11-1.35-1.66q-1.32-1.68-2.66-3.34c-.89-1.11-1.59-2.35-2.39-3.52l-1.18-1.77a18.18,18.18,0,0,1-1-1.83l-2.06-3.7c-.63-1.25-1.18-2.54-1.77-3.81l-.87-1.91c-.28-.63-.49-1.3-.74-1.95-.48-1.31-1-2.61-1.43-3.91s-.77-2.66-1.16-4l-.56-2c-.17-.66-.29-1.34-.44-2-.28-1.34-.55-2.68-.83-4s-.38-2.69-.57-4l-.28-2c-.09-.67-.11-1.34-.16-2-.09-1.34-.19-2.68-.28-4s0-2.68,0-4,0-2.67.06-4,.15-2.65.22-4,.28-2.62.41-3.93l.23-2,.12-1,.17-1c.22-1.28.45-2.57.67-3.85,4-20.38,13.48-38.88,27.06-52.6A157,157,0,0,1,50.34,25.57C52.23,24.33,54.06,23,56,21.88l5.74-3.38c3.89-2.07,7.74-4.13,11.7-5.81A141.22,141.22,0,0,1,97.15,4.47c2-.57,4-.93,5.93-1.36S107,2.25,109,2l5.84-.89,5.8-.58c1.91-.23,3.83-.29,5.72-.37L129.17,0C130.11,0,131-.06,132,0h6.94l1.37.08L143,.2l2.7.16,1.35.08,1.33.15,5.26.59c1.75.15,3.46.51,5.16.76s3.39.52,5,.86A175.58,175.58,0,0,1,199.7,14a200.92,200.92,0,0,1,27.84,14.87,223.26,223.26,0,0,1,34,27.3c3.63,3.42,6.18,6.25,7.94,8.1l2.65,2.81-2.75-2.71c-1.82-1.79-4.46-4.53-8.18-7.83a225.89,225.89,0,0,0-34.62-26.07,199,199,0,0,0-27.92-13.9,173,173,0,0,0-35.5-10c-1.63-.29-3.29-.47-4.95-.71s-3.34-.52-5.05-.62L148,4.81l-1.3-.11-1.3,0-2.64-.09-2.65-.09h-2.67l-5.4.09c-.91,0-1.82.06-2.73.13l-2.75.2c-1.83.13-3.68.23-5.53.5l-5.6.69-5.62,1c-1.9.29-3.77.77-5.66,1.21s-3.81.84-5.69,1.43a137.52,137.52,0,0,0-22.66,8.46A144.21,144.21,0,0,0,33.92,48.26c-1.47,1.65-3,3.22-4.39,5-.7.88-1.41,1.74-2.1,2.63l-1.95,2.77-1,1.39c-.31.48-.6,1-.9,1.45l-1.8,2.92c-.58,1-1.1,2-1.65,3a34.42,34.42,0,0,0-1.6,3.08c-1,2.1-2,4.18-2.83,6.38-.43,1.08-.89,2.16-1.3,3.26s-.75,2.23-1.13,3.35l-.56,1.68-.48,1.71c-.31,1.15-.63,2.29-1,3.44s-.51,2.32-.77,3.49-.55,2.33-.7,3.52-.38,2.37-.56,3.56l-.15.89-.08.9-.18,1.8c-.1,1.21-.28,2.41-.32,3.62s-.09,2.42-.14,3.63,0,2.43,0,3.65,0,2.44.11,3.66.21,2.43.31,3.65c.07.61.09,1.22.18,1.83l.28,1.81c.19,1.22.36,2.43.57,3.64l.81,3.6c.15.6.26,1.21.42,1.8l.54,1.77c.36,1.18.69,2.37,1.08,3.54L14,144.14c.23.58.43,1.17.69,1.73l.8,1.68c.54,1.11,1,2.25,1.61,3.35L19,154.13c.32.53.6,1.09.95,1.61L21,157.28c.72,1,1.4,2.06,2.15,3.07l2.39,2.9c.4.48.78,1,1.2,1.45l1.32,1.35,2.63,2.71c1,.83,1.92,1.66,2.87,2.5L35,172.51c.47.42,1,.76,1.53,1.15l3.09,2.27.77.56.83.5,1.64,1c1.11.66,2.18,1.37,3.31,2l3.47,1.77a38,38,0,0,0,3.53,1.68L56.8,185c.61.25,1.21.52,1.82.75l1.89.63c2.51.81,5,1.76,7.61,2.35s5.16,1.42,7.83,1.84l4,.76c.67.11,1.33.27,2,.35l2,.25,4,.51,1,.13,1,.06,2,.14L96,193h4.11a164.08,164.08,0,0,0,33.3-3.29,238.26,238.26,0,0,0,33.28-9.26c11-3.88,22-8.45,32.85-13.5,21.75-10.1,43.19-22.08,64.7-34.8,10.76-6.35,21.54-12.9,32.44-19.48,5.46-3.29,10.94-6.59,16.48-9.85l16.62-9.72c22-13,43.4-26.93,65.34-39.53s44.52-24,68.32-31.32a200.2,200.2,0,0,1,36.24-7.64,177.74,177.74,0,0,1,36.39-.13A152.19,152.19,0,0,1,571,22.36a148,148,0,0,1,31.5,15.25A124.25,124.25,0,0,1,616.36,48a102,102,0,0,1,12,12.41,85.29,85.29,0,0,1,9.53,14.27,87.6,87.6,0,0,1,6.44,15.74,94,94,0,0,1,3,16.46l.21,4.13c0,.69.08,1.37.09,2.06v2c0,1.37,0,2.73-.11,4.08s-.1,2.71-.27,4.06a89.19,89.19,0,0,1-8.35,30.7,92,92,0,0,1-17.68,24.92,111.78,111.78,0,0,1-11.14,9.71,123.25,123.25,0,0,1-12,8A139.24,139.24,0,0,1,573,207.91a175.1,175.1,0,0,1-25.5,6.47,242.44,242.44,0,0,1-24.76,3c-2,.1-4,.29-6,.33l-6,.17-5.91,0c-1.95,0-3.88-.13-5.8-.19a209.89,209.89,0,0,1-22.23-2.2c-7.13-1.14-14-2.61-20.51-4.31s-12.74-3.73-18.64-5.84-11.46-4.44-16.72-6.82A281.18,281.18,0,0,1,393,183.91,399.75,399.75,0,0,1,357,159.48c-4-3-7-5.33-9-6.92Z" transform="translate(-0.01 0.05)"/>
    <path class="cls-1" d="M468.54,71l-2.84.44c-.93.15-2.09.29-3.44.54l-4.66.87a183.46,183.46,0,0,0-28.79,8.37,286.09,286.09,0,0,0-39.89,19.17c-14.55,8.23-30.09,18.19-46.67,28.54-8.3,5.17-16.48,10.16-24.55,14.77q-6,3.47-12,6.63l-11.36,6.11c-14.7,8.09-27.93,15.82-39.34,21.79l-4.16,2.21-4,2-7.35,3.63c-4.68,2.09-8.68,3.94-12,5.31-6.72,2.62-10.43,4-10.43,4s3.42-2.07,9.6-5.66c3.06-1.86,6.73-4.27,11-7l6.76-4.53,3.69-2.47,3.85-2.66,17.22-11.93c3.11-2.14,6.32-4.35,9.67-6.6s6.82-4.54,10.43-6.84,7.4-4.61,11.17-6.89,7.58-4.59,11.47-7L336,118.74c16.58-10.35,32.82-19.87,48.29-27.32A223.3,223.3,0,0,1,427,75.5,152.19,152.19,0,0,1,457.35,71l4.78-.12h3.5Z" transform="translate(-0.01 0.05)"/>
    <path class="cls-1" d="M439.2,29.43l-2.84.44c-.94.15-2.09.3-3.44.54l-4.67.87a184.66,184.66,0,0,0-28.77,8.38,286,286,0,0,0-39.89,19.16C345,67.06,329.5,77,312.92,87.37c-8.3,5.16-16.48,10.15-24.55,14.76q-6,3.47-12,6.63L265,114.91c-14.71,8.1-27.93,15.82-39.34,21.8l-4.16,2.2-4,2-7.35,3.63c-4.68,2.09-8.68,3.94-12,5.3-6.72,2.62-10.43,4-10.43,4s3.42-2.06,9.6-5.66c3.06-1.86,6.73-4.27,11-7,2.12-1.41,4.37-2.93,6.76-4.53l3.69-2.46,3.85-2.67,17.21-11.92c3.12-2.14,6.33-4.36,9.68-6.61s6.82-4.54,10.42-6.84,7.41-4.61,11.18-6.88,7.58-4.6,11.46-7l24.09-15.09C323.27,66.83,339.52,57.31,355,49.86a222.58,222.58,0,0,1,42.75-16A150.55,150.55,0,0,1,428,29.4l4.79-.12c1.38,0,2.56,0,3.5,0Z" transform="translate(-0.01 0.05)"/>
  </g>
</svg>
